# xmcd
#
# Track frame offsets:
#	150
#	12118
#	36333
#	50483
#	75270
#	88595
#	102669
#	114574
#	129472
#	142459
#	160466
#	179918
#	192761
#	213490
#	225013
#	237341
#	251229
#	267845
#	279963
#	301729
#	319820
#
# Disc length: 4470 seconds
#
# Revision: 0
# Processed by: cddbd v1.5.2PL0 Copyright (c) Steve Scherf et al.
# Submitted via: EasyCDDAExtractor 2010.6.0.0
#
DISCID=29117415
DTITLE=Emmylou Harris - Songbird:  Rare Tracks and Forgotten Gems - Disc # 3
DYEAR=1900
DGENRE=Country
TTITLE0=Falling In A Deep Hole
TTITLE1=1917
TTITLE2=Palms of Victory
TTITLE3=Softly And Tenderly
TTITLE4=My Dear Companion
TTITLE5=Mary Danced With Soldiers
TTITLE6=I Don't Love you Much, Do I
TTITLE7=All I Left Behind
TTITLE8=I Remember You
TTITLE9=Golden Ring
TTITLE10=Sunny
TTITLE11=In The Garden
TTITLE12=Love Still Remains
TTITLE13=Snake Song
TTITLE14=Hobo's Lullaby
TTITLE15=Wondering
TTITLE16=Immigrant Eyes
TTITLE17=Juanita
TTITLE18=She
TTITLE19=Sin City
TTITLE20=Wheels
EXTD=
EXTT0=
EXTT1=
EXTT2=
EXTT3=
EXTT4=
EXTT5=
EXTT6=
EXTT7=
EXTT8=
EXTT9=
EXTT10=
EXTT11=
EXTT12=
EXTT13=
EXTT14=
EXTT15=
EXTT16=
EXTT17=
EXTT18=
EXTT19=
EXTT20=
PLAYORDER=
